<?xml version="1.0" encoding="UTF-8" standalone="no"?>
<svg width="18px" height="18px" viewBox="0 0 18 18" version="1.1" xmlns="http://www.w3.org/2000/svg" xmlns:xlink="http://www.w3.org/1999/xlink">
    <!-- Generator: sketchtool 3.6.1 (26313) - http://www.bohemiancoding.com/sketch -->
    <title>72C707CD-1ADD-4E45-8A66-782CA92C7DE7</title>
    <desc>Created with sketchtool.</desc>
    <defs></defs>
    <g id="Welcome" stroke="none" stroke-width="1" fill="none" fill-rule="evenodd">
        <g id="Extension-UI-Assets" transform="translate(-25.000000, -136.000000)" fill="#666666">
            <g id="main-UI" transform="translate(20.000000, 25.000000)">
                <path d="M11.6895369,122.320755 C9.12692967,122.320755 7.05831904,120.252144 7.05831904,117.689537 C7.05831904,115.12693 9.12692967,113.058319 11.6895369,113.058319 C14.2521441,113.058319 16.3207547,115.12693 16.3207547,117.689537 C16.3207547,120.252144 14.2521441,122.320755 11.6895369,122.320755 L11.6895369,122.320755 Z M17.864494,122.320755 L17.051458,122.320755 L16.7632933,122.042882 C17.7718696,120.86964 18.3790738,119.346484 18.3790738,117.689537 C18.3790738,113.994854 15.3842196,111 11.6895369,111 C7.9948542,111 5,113.994854 5,117.689537 C5,121.38422 7.9948542,124.379074 11.6895369,124.379074 C13.3464837,124.379074 14.8696398,123.77187 16.0428816,122.763293 L16.3207547,123.051458 L16.3207547,123.864494 L21.4665523,129 L23,127.466552 L17.864494,122.320755 Z" id="ic_mainui_search"></path>
            </g>
        </g>
    </g>
</svg>