<svg width="20" height="20" viewBox="0 0 20 20" xmlns="http://www.w3.org/2000/svg"><title>540709A5-C75E-4180-A382-91E189538256</title><path d="M10.002 13.5c-1.984 0-3.598-1.57-3.598-3.5s1.614-3.5 3.598-3.5c1.984 0 3.598 1.57 3.598 3.5s-1.614 3.5-3.598 3.5zm7.639-2.52c.04-.32.072-.64.072-.98 0-.34-.031-.66-.072-.98l2.169-1.65a.495.495 0 0 0 .123-.64l-2.056-3.46c-.123-.22-.4-.3-.627-.22l-2.56 1c-.534-.4-1.11-.73-1.737-.98l-.39-2.65a.497.497 0 0 0-.505-.42H7.946a.497.497 0 0 0-.504.42l-.39 2.65c-.627.25-1.203.59-1.738.98l-2.56-1a.508.508 0 0 0-.627.22L.071 6.73a.484.484 0 0 0 .124.64l2.169 1.65c-.041.32-.072.65-.072.98 0 .33.03.66.072.98l-2.17 1.65a.495.495 0 0 0-.123.64l2.056 3.46c.124.22.401.3.627.22l2.56-1c.535.4 1.11.73 1.738.98l.39 2.65c.031.24.247.42.504.42h4.112c.257 0 .473-.18.504-.42l.39-2.65a7.955 7.955 0 0 0 1.738-.98l2.56 1c.236.09.504 0 .627-.22l2.056-3.46a.495.495 0 0 0-.123-.64l-2.17-1.65z" fill="#00547D" fill-rule="evenodd"/></svg>